<?xml version="1.0" encoding="UTF-8"?><svg xmlns="http://www.w3.org/2000/svg" xmlns:xlink="http://www.w3.org/1999/xlink" width="90" zoomAndPan="magnify" viewBox="0 0 90 89.999999" height="89.999999" preserveAspectRatio="xMidYMid meet" version="1.0"><path fill="rgb(100%, 100%, 100%)" d="M 45 0.839844 C 69.394531 0.839844 89.160156 20.605469 89.160156 45 C 89.160156 69.394531 69.394531 89.160156 45 89.160156 C 20.605469 89.160156 0.839844 69.394531 0.839844 45 C 0.839844 20.605469 20.605469 0.839844 45 0.839844 Z M 45 0.839844 " fill-opacity="1" fill-rule="nonzero"/><path fill="rgb(7.839966%, 21.569824%, 29.798889%)" d="M 63.375 47.089844 C 62.773438 47.089844 62.171875 47.117188 61.574219 47.179688 C 60.976562 47.238281 60.378906 47.324219 59.789062 47.441406 C 59.199219 47.558594 58.617188 47.707031 58.042969 47.878906 C 57.464844 48.054688 56.898438 48.257812 56.34375 48.488281 C 55.789062 48.71875 55.242188 48.976562 54.714844 49.257812 C 54.183594 49.542969 53.667969 49.851562 53.167969 50.1875 C 52.664062 50.519531 52.183594 50.878906 51.71875 51.261719 C 51.253906 51.640625 50.808594 52.046875 50.382812 52.472656 C 49.957031 52.898438 49.550781 53.34375 49.171875 53.808594 C 48.789062 54.273438 48.429688 54.753906 48.097656 55.253906 C 47.761719 55.757812 47.453125 56.273438 47.167969 56.800781 C 46.886719 57.332031 46.628906 57.875 46.398438 58.433594 C 46.167969 58.988281 45.964844 59.554688 45.792969 60.128906 C 45.617188 60.707031 45.46875 61.289062 45.351562 61.878906 C 45.234375 62.46875 45.148438 63.066406 45.089844 63.664062 C 45.03125 64.261719 45 64.863281 45 65.464844 C 45 66.066406 45.03125 66.667969 45.089844 67.265625 C 45.148438 67.863281 45.234375 68.460938 45.351562 69.050781 C 45.46875 69.640625 45.617188 70.222656 45.792969 70.796875 C 45.964844 71.375 46.167969 71.941406 46.398438 72.496094 C 46.628906 73.050781 46.886719 73.59375 47.167969 74.125 C 47.453125 74.65625 47.761719 75.171875 48.097656 75.671875 C 48.429688 76.171875 48.789062 76.65625 49.171875 77.121094 C 49.550781 77.585938 49.957031 78.03125 50.382812 78.457031 C 50.808594 78.882812 51.253906 79.285156 51.71875 79.667969 C 52.183594 80.050781 52.664062 80.410156 53.167969 80.742188 C 53.667969 81.078125 54.183594 81.386719 54.714844 81.667969 C 55.242188 81.953125 55.789062 82.210938 56.34375 82.441406 C 56.898438 82.671875 57.464844 82.875 58.042969 83.046875 C 58.617188 83.222656 59.199219 83.367188 59.789062 83.488281 C 60.378906 83.605469 60.976562 83.691406 61.574219 83.75 C 62.171875 83.808594 62.773438 83.839844 63.375 83.839844 C 63.976562 83.839844 64.578125 83.808594 65.175781 83.75 C 65.773438 83.691406 66.371094 83.605469 66.960938 83.488281 C 67.550781 83.367188 68.132812 83.222656 68.707031 83.046875 C 69.285156 82.875 69.851562 82.671875 70.40625 82.441406 C 70.960938 82.210938 71.507812 81.953125 72.035156 81.667969 C 72.566406 81.386719 73.082031 81.078125 73.582031 80.742188 C 74.082031 80.410156 74.566406 80.050781 75.03125 79.667969 C 75.496094 79.285156 75.941406 78.882812 76.367188 78.457031 C 76.792969 78.03125 77.199219 77.585938 77.578125 77.121094 C 77.960938 76.65625 78.320312 76.171875 78.652344 75.671875 C 78.988281 75.171875 79.296875 74.65625 79.582031 74.125 C 79.863281 73.59375 80.121094 73.050781 80.351562 72.496094 C 80.582031 71.941406 80.785156 71.375 80.957031 70.796875 C 81.132812 70.222656 81.28125 69.640625 81.398438 69.050781 C 81.515625 68.460938 81.601562 67.863281 81.660156 67.265625 C 81.71875 66.667969 81.75 66.066406 81.75 65.464844 C 81.75 64.863281 81.71875 64.261719 81.660156 63.664062 C 81.601562 63.066406 81.515625 62.46875 81.398438 61.878906 C 81.28125 61.289062 81.132812 60.707031 80.957031 60.128906 C 80.785156 59.554688 80.582031 58.988281 80.351562 58.433594 C 80.121094 57.875 79.863281 57.332031 79.582031 56.800781 C 79.296875 56.273438 78.988281 55.757812 78.652344 55.253906 C 78.320312 54.753906 77.960938 54.273438 77.578125 53.808594 C 77.199219 53.34375 76.792969 52.898438 76.367188 52.472656 C 75.941406 52.046875 75.496094 51.640625 75.03125 51.261719 C 74.566406 50.878906 74.082031 50.519531 73.582031 50.1875 C 73.082031 49.851562 72.566406 49.542969 72.035156 49.257812 C 71.507812 48.976562 70.960938 48.71875 70.40625 48.488281 C 69.851562 48.257812 69.285156 48.054688 68.707031 47.878906 C 68.132812 47.707031 67.550781 47.558594 66.960938 47.441406 C 66.371094 47.324219 65.773438 47.238281 65.175781 47.179688 C 64.578125 47.117188 63.976562 47.089844 63.375 47.089844 Z M 63.375 47.089844 " fill-opacity="1" fill-rule="nonzero"/><path fill="rgb(38.819885%, 91.758728%, 82.749939%)" d="M 67.0625 17.820312 C 66.324219 17.820312 65.59375 17.890625 64.871094 18.035156 C 64.144531 18.179688 63.441406 18.390625 62.757812 18.675781 C 62.078125 18.957031 61.429688 19.304688 60.8125 19.714844 C 60.199219 20.125 59.632812 20.589844 59.109375 21.113281 C 58.585938 21.636719 58.121094 22.203125 57.710938 22.816406 C 57.300781 23.433594 56.953125 24.082031 56.671875 24.761719 C 56.386719 25.445312 56.175781 26.148438 56.03125 26.875 C 55.886719 27.597656 55.8125 28.328125 55.8125 29.070312 C 55.8125 29.808594 55.886719 30.539062 56.03125 31.261719 C 56.175781 31.988281 56.386719 32.691406 56.671875 33.375 C 56.953125 34.054688 57.300781 34.703125 57.710938 35.320312 C 58.121094 35.933594 58.585938 36.5 59.109375 37.023438 C 59.632812 37.546875 60.199219 38.011719 60.8125 38.421875 C 61.429688 38.832031 62.078125 39.179688 62.757812 39.460938 C 63.441406 39.746094 64.144531 39.957031 64.871094 40.101562 C 65.59375 40.246094 66.324219 40.320312 67.0625 40.320312 C 67.804688 40.320312 68.535156 40.246094 69.257812 40.101562 C 69.984375 39.957031 70.6875 39.746094 71.371094 39.460938 C 72.050781 39.179688 72.699219 38.832031 73.316406 38.421875 C 73.929688 38.011719 74.496094 37.546875 75.019531 37.023438 C 75.542969 36.5 76.007812 35.933594 76.417969 35.320312 C 76.828125 34.703125 77.175781 34.054688 77.457031 33.375 C 77.742188 32.691406 77.953125 31.988281 78.097656 31.261719 C 78.242188 30.539062 78.3125 29.808594 78.3125 29.070312 C 78.3125 28.328125 78.242188 27.597656 78.097656 26.875 C 77.953125 26.148438 77.742188 25.445312 77.457031 24.761719 C 77.175781 24.082031 76.828125 23.433594 76.417969 22.816406 C 76.007812 22.203125 75.542969 21.636719 75.019531 21.113281 C 74.496094 20.589844 73.929688 20.125 73.316406 19.714844 C 72.699219 19.304688 72.050781 18.957031 71.371094 18.675781 C 70.6875 18.390625 69.984375 18.179688 69.257812 18.035156 C 68.535156 17.890625 67.804688 17.820312 67.0625 17.820312 Z M 67.0625 17.820312 " fill-opacity="1" fill-rule="nonzero"/><path fill="rgb(11.369324%, 37.649536%, 90.589905%)" d="M 28.035156 1.804688 C 27.3125 1.804688 26.589844 1.839844 25.867188 1.910156 C 25.148438 1.980469 24.429688 2.085938 23.71875 2.230469 C 23.007812 2.371094 22.308594 2.546875 21.613281 2.757812 C 20.921875 2.964844 20.238281 3.210938 19.570312 3.488281 C 18.902344 3.765625 18.246094 4.074219 17.605469 4.417969 C 16.96875 4.757812 16.347656 5.128906 15.746094 5.53125 C 15.140625 5.933594 14.5625 6.367188 14 6.824219 C 13.441406 7.285156 12.90625 7.773438 12.390625 8.285156 C 11.878906 8.796875 11.394531 9.332031 10.933594 9.894531 C 10.472656 10.453125 10.042969 11.035156 9.640625 11.636719 C 9.238281 12.238281 8.867188 12.859375 8.523438 13.5 C 8.183594 14.136719 7.875 14.792969 7.597656 15.460938 C 7.320312 16.132812 7.074219 16.8125 6.863281 17.507812 C 6.652344 18.199219 6.476562 18.902344 6.335938 19.613281 C 6.195312 20.324219 6.089844 21.039062 6.019531 21.761719 C 5.949219 22.480469 5.910156 23.203125 5.910156 23.929688 C 5.910156 24.652344 5.949219 25.375 6.019531 26.097656 C 6.089844 26.820312 6.195312 27.535156 6.335938 28.246094 C 6.476562 28.957031 6.652344 29.65625 6.863281 30.351562 C 7.074219 31.042969 7.320312 31.726562 7.597656 32.394531 C 7.875 33.066406 8.183594 33.71875 8.523438 34.359375 C 8.867188 34.996094 9.238281 35.617188 9.640625 36.21875 C 10.042969 36.824219 10.472656 37.40625 10.933594 37.964844 C 11.394531 38.523438 11.878906 39.0625 12.390625 39.574219 C 12.90625 40.085938 13.441406 40.570312 14 41.03125 C 14.5625 41.492188 15.140625 41.921875 15.746094 42.324219 C 16.347656 42.726562 16.96875 43.097656 17.605469 43.441406 C 18.246094 43.78125 18.902344 44.09375 19.570312 44.371094 C 20.238281 44.648438 20.921875 44.890625 21.613281 45.101562 C 22.308594 45.3125 23.007812 45.488281 23.71875 45.628906 C 24.429688 45.769531 25.148438 45.875 25.867188 45.945312 C 26.589844 46.019531 27.3125 46.054688 28.035156 46.054688 C 28.761719 46.054688 29.484375 46.019531 30.207031 45.945312 C 30.925781 45.875 31.640625 45.769531 32.351562 45.628906 C 33.0625 45.488281 33.765625 45.3125 34.460938 45.101562 C 35.152344 44.890625 35.835938 44.648438 36.503906 44.371094 C 37.171875 44.09375 37.828125 43.78125 38.464844 43.441406 C 39.105469 43.097656 39.726562 42.726562 40.328125 42.324219 C 40.929688 41.921875 41.511719 41.492188 42.074219 41.03125 C 42.632812 40.570312 43.167969 40.085938 43.679688 39.574219 C 44.195312 39.0625 44.679688 38.523438 45.140625 37.964844 C 45.597656 37.40625 46.03125 36.824219 46.433594 36.21875 C 46.835938 35.617188 47.207031 34.996094 47.550781 34.359375 C 47.890625 33.71875 48.199219 33.066406 48.476562 32.394531 C 48.753906 31.726562 49 31.042969 49.210938 30.351562 C 49.417969 29.65625 49.59375 28.957031 49.738281 28.246094 C 49.878906 27.535156 49.984375 26.820312 50.054688 26.097656 C 50.125 25.375 50.160156 24.652344 50.160156 23.929688 C 50.160156 23.203125 50.125 22.480469 50.054688 21.761719 C 49.984375 21.039062 49.878906 20.324219 49.738281 19.613281 C 49.59375 18.902344 49.417969 18.199219 49.210938 17.507812 C 49 16.8125 48.753906 16.132812 48.476562 15.460938 C 48.199219 14.792969 47.890625 14.136719 47.550781 13.5 C 47.207031 12.859375 46.835938 12.238281 46.433594 11.636719 C 46.03125 11.035156 45.597656 10.453125 45.140625 9.894531 C 44.679688 9.332031 44.195312 8.796875 43.679688 8.285156 C 43.167969 7.773438 42.632812 7.285156 42.074219 6.824219 C 41.511719 6.367188 40.929688 5.933594 40.328125 5.53125 C 39.726562 5.128906 39.105469 4.757812 38.464844 4.417969 C 37.828125 4.074219 37.171875 3.765625 36.503906 3.488281 C 35.835938 3.210938 35.152344 2.964844 34.460938 2.757812 C 33.765625 2.546875 33.0625 2.371094 32.351562 2.230469 C 31.640625 2.085938 30.925781 1.980469 30.207031 1.910156 C 29.484375 1.839844 28.761719 1.804688 28.035156 1.804688 Z M 28.035156 1.804688 " fill-opacity="1" fill-rule="nonzero"/><path fill="rgb(38.819885%, 91.758728%, 82.749939%)" d="M 18.660156 49.179688 C 18.121094 49.179688 17.582031 49.207031 17.042969 49.257812 C 16.507812 49.3125 15.972656 49.390625 15.441406 49.496094 C 14.914062 49.601562 14.390625 49.734375 13.871094 49.890625 C 13.355469 50.046875 12.847656 50.226562 12.347656 50.433594 C 11.847656 50.640625 11.359375 50.871094 10.882812 51.128906 C 10.40625 51.382812 9.945312 51.660156 9.496094 51.960938 C 9.046875 52.261719 8.613281 52.582031 8.195312 52.925781 C 7.777344 53.265625 7.375 53.628906 6.996094 54.011719 C 6.613281 54.394531 6.25 54.792969 5.90625 55.210938 C 5.5625 55.628906 5.242188 56.0625 4.941406 56.511719 C 4.640625 56.960938 4.363281 57.425781 4.109375 57.902344 C 3.855469 58.378906 3.625 58.867188 3.417969 59.363281 C 3.210938 59.863281 3.027344 60.371094 2.871094 60.890625 C 2.714844 61.40625 2.585938 61.929688 2.480469 62.460938 C 2.375 62.988281 2.292969 63.523438 2.242188 64.0625 C 2.1875 64.597656 2.160156 65.136719 2.160156 65.679688 C 2.160156 66.21875 2.1875 66.757812 2.242188 67.296875 C 2.292969 67.835938 2.375 68.367188 2.480469 68.898438 C 2.585938 69.429688 2.714844 69.953125 2.871094 70.46875 C 3.027344 70.984375 3.210938 71.492188 3.417969 71.992188 C 3.625 72.492188 3.855469 72.980469 4.109375 73.457031 C 4.363281 73.933594 4.640625 74.398438 4.941406 74.847656 C 5.242188 75.296875 5.5625 75.730469 5.90625 76.144531 C 6.25 76.5625 6.613281 76.964844 6.996094 77.347656 C 7.375 77.726562 7.777344 78.089844 8.195312 78.433594 C 8.613281 78.777344 9.046875 79.097656 9.496094 79.398438 C 9.945312 79.699219 10.40625 79.976562 10.882812 80.230469 C 11.359375 80.484375 11.847656 80.714844 12.347656 80.921875 C 12.847656 81.128906 13.355469 81.3125 13.871094 81.46875 C 14.390625 81.625 14.914062 81.757812 15.441406 81.863281 C 15.972656 81.96875 16.507812 82.046875 17.042969 82.097656 C 17.582031 82.152344 18.121094 82.179688 18.660156 82.179688 C 19.203125 82.179688 19.742188 82.152344 20.277344 82.097656 C 20.816406 82.046875 21.351562 81.96875 21.878906 81.863281 C 22.410156 81.757812 22.933594 81.625 23.453125 81.46875 C 23.96875 81.3125 24.476562 81.128906 24.976562 80.921875 C 25.476562 80.714844 25.964844 80.484375 26.441406 80.230469 C 26.917969 79.976562 27.378906 79.699219 27.828125 79.398438 C 28.277344 79.097656 28.710938 78.777344 29.128906 78.433594 C 29.546875 78.089844 29.945312 77.726562 30.328125 77.347656 C 30.710938 76.964844 31.074219 76.5625 31.417969 76.144531 C 31.757812 75.730469 32.082031 75.296875 32.382812 74.847656 C 32.679688 74.398438 32.957031 73.933594 33.214844 73.457031 C 33.46875 72.980469 33.699219 72.492188 33.90625 71.992188 C 34.113281 71.492188 34.292969 70.984375 34.453125 70.46875 C 34.609375 69.953125 34.738281 69.429688 34.84375 68.898438 C 34.949219 68.367188 35.03125 67.835938 35.082031 67.296875 C 35.136719 66.757812 35.160156 66.21875 35.160156 65.679688 C 35.160156 65.136719 35.136719 64.597656 35.082031 64.0625 C 35.03125 63.523438 34.949219 62.988281 34.84375 62.460938 C 34.738281 61.929688 34.609375 61.40625 34.453125 60.890625 C 34.292969 60.371094 34.113281 59.863281 33.90625 59.363281 C 33.699219 58.867188 33.46875 58.378906 33.214844 57.902344 C 32.957031 57.425781 32.679688 56.960938 32.382812 56.511719 C 32.082031 56.0625 31.757812 55.628906 31.417969 55.210938 C 31.074219 54.792969 30.710938 54.394531 30.328125 54.011719 C 29.945312 53.628906 29.546875 53.265625 29.128906 52.925781 C 28.710938 52.582031 28.277344 52.261719 27.828125 51.960938 C 27.378906 51.660156 26.917969 51.382812 26.441406 51.128906 C 25.964844 50.871094 25.476562 50.640625 24.976562 50.433594 C 24.476562 50.226562 23.96875 50.046875 23.453125 49.890625 C 22.933594 49.734375 22.410156 49.601562 21.878906 49.496094 C 21.351562 49.390625 20.816406 49.3125 20.277344 49.257812 C 19.742188 49.207031 19.203125 49.179688 18.660156 49.179688 Z M 18.660156 49.179688 " fill-opacity="1" fill-rule="nonzero"/></svg>